<svg id="Layer_1" data-name="Layer 1" xmlns="http://www.w3.org/2000/svg" viewBox="0 0 1280 1024"><defs><style>.cls-1,.cls-2,.cls-4,.cls-5,.cls-6{fill:none;}.cls-1,.cls-2{stroke:#355687;}.cls-1,.cls-2,.cls-3,.cls-4,.cls-5,.cls-6{stroke-miterlimit:10;}.cls-1,.cls-6{stroke-width:40px;}.cls-2{stroke-width:10px;}.cls-3{fill:#ccd4e0;stroke:#ccc;stroke-width:1.07px;}.cls-4,.cls-5{stroke:#000;}.cls-4{stroke-width:20px;}.cls-5{stroke-width:6px;}.cls-6{stroke:#fff;}</style></defs><title>layoutExample-thumbs</title><rect y="2" width="1280" height="135"/><line class="cls-1" x1="59.5" y1="210" x2="813" y2="210"/><line class="cls-1" x1="898.5" y1="210" x2="1221" y2="210"/><line class="cls-2" x1="59.5" y1="936" x2="1220.5" y2="936"/><line class="cls-2" x1="60" y1="974" x2="1221" y2="974"/><rect class="cls-3" x="61.34" y="320" width="315.16" height="307" rx="1.21" ry="1.21"/><line class="cls-4" x1="60" y1="281" x2="377" y2="281"/><line class="cls-5" x1="61" y1="654" x2="378" y2="654"/><line class="cls-5" x1="61" y1="675.27" x2="378" y2="675.27"/><line class="cls-5" x1="61" y1="696.55" x2="378" y2="696.55"/><line class="cls-5" x1="61" y1="717.82" x2="378" y2="717.82"/><line class="cls-5" x1="61" y1="739.09" x2="378" y2="739.09"/><line class="cls-5" x1="61" y1="760.36" x2="378" y2="760.36"/><line class="cls-5" x1="61" y1="781.64" x2="378" y2="781.64"/><line class="cls-5" x1="61" y1="802.91" x2="378" y2="802.91"/><line class="cls-5" x1="61" y1="824.18" x2="378" y2="824.18"/><line class="cls-5" x1="61" y1="845.45" x2="378" y2="845.45"/><line class="cls-5" x1="61" y1="866.73" x2="378" y2="866.73"/><line class="cls-5" x1="61" y1="888" x2="378" y2="888"/><rect class="cls-3" x="483.34" y="320" width="315.16" height="307" rx="1.21" ry="1.21"/><line class="cls-4" x1="482" y1="281" x2="799" y2="281"/><line class="cls-5" x1="483" y1="654" x2="800" y2="654"/><line class="cls-5" x1="483" y1="675.27" x2="800" y2="675.27"/><line class="cls-5" x1="483" y1="696.55" x2="800" y2="696.55"/><line class="cls-5" x1="483" y1="717.82" x2="800" y2="717.82"/><line class="cls-5" x1="483" y1="739.09" x2="800" y2="739.09"/><line class="cls-5" x1="483" y1="760.36" x2="800" y2="760.36"/><line class="cls-5" x1="483" y1="781.64" x2="800" y2="781.64"/><line class="cls-5" x1="483" y1="802.91" x2="800" y2="802.91"/><line class="cls-5" x1="483" y1="824.18" x2="800" y2="824.18"/><line class="cls-5" x1="483" y1="845.45" x2="800" y2="845.45"/><line class="cls-5" x1="483" y1="866.73" x2="800" y2="866.73"/><line class="cls-5" x1="483" y1="888" x2="800" y2="888"/><rect class="cls-3" x="905.34" y="320" width="315.16" height="307" rx="1.21" ry="1.21"/><line class="cls-4" x1="904" y1="281" x2="1221" y2="281"/><line class="cls-5" x1="905" y1="654" x2="1222" y2="654"/><line class="cls-5" x1="905" y1="675.27" x2="1222" y2="675.27"/><line class="cls-5" x1="905" y1="696.55" x2="1222" y2="696.55"/><line class="cls-5" x1="905" y1="717.82" x2="1222" y2="717.82"/><line class="cls-5" x1="905" y1="739.09" x2="1222" y2="739.09"/><line class="cls-5" x1="905" y1="760.36" x2="1222" y2="760.36"/><line class="cls-5" x1="905" y1="781.64" x2="1222" y2="781.64"/><line class="cls-5" x1="905" y1="802.91" x2="1222" y2="802.91"/><line class="cls-5" x1="905" y1="824.18" x2="1222" y2="824.18"/><line class="cls-5" x1="905" y1="845.45" x2="1222" y2="845.45"/><line class="cls-5" x1="905" y1="866.73" x2="1222" y2="866.73"/><line class="cls-5" x1="905" y1="888" x2="1222" y2="888"/><line class="cls-6" x1="298" y1="70" x2="982" y2="70"/><path d="M1273,10.5v1003H12V10.5H1273m10-10H2v1023H1283V.5Z"/></svg>