<svg id="Layer_1" data-name="Layer 1" xmlns="http://www.w3.org/2000/svg" viewBox="0 0 1280 1024"><defs><style>.cls-1{fill:#ccd4e0;}.cls-2,.cls-3,.cls-4,.cls-5{fill:none;stroke-miterlimit:10;}.cls-2,.cls-3{stroke:#355687;}.cls-2,.cls-5{stroke-width:40px;}.cls-3{stroke-width:14px;}.cls-4{stroke:#000;stroke-width:8.17px;}.cls-5{stroke:#fff;}</style></defs><title>layoutExample-thumbs</title><rect x="-1" y="1.5" width="1281" height="135.5"/><rect class="cls-1" x="60" y="431" width="379" height="445"/><line class="cls-2" x1="59.5" y1="210" x2="1220.5" y2="210"/><line class="cls-3" x1="58.5" y1="326" x2="1219.5" y2="326"/><line class="cls-3" x1="59" y1="284" x2="1220" y2="284"/><line class="cls-3" x1="59" y1="368" x2="1220" y2="368"/><line class="cls-4" x1="485" y1="430.5" x2="1221" y2="430.5"/><line class="cls-4" x1="485" y1="479.86" x2="1221" y2="479.86"/><line class="cls-4" x1="485" y1="529.23" x2="1221" y2="529.23"/><line class="cls-4" x1="485" y1="578.59" x2="1221" y2="578.59"/><line class="cls-4" x1="485" y1="627.95" x2="1221" y2="627.95"/><line class="cls-4" x1="485" y1="677.32" x2="1221" y2="677.32"/><line class="cls-4" x1="485" y1="726.68" x2="1221" y2="726.68"/><line class="cls-4" x1="485" y1="776.05" x2="1221" y2="776.05"/><line class="cls-4" x1="485" y1="825.41" x2="1221" y2="825.41"/><line class="cls-4" x1="485" y1="874.77" x2="1221" y2="874.77"/><line class="cls-4" x1="59" y1="924.14" x2="1221" y2="924.14"/><line class="cls-4" x1="59" y1="973.5" x2="1221" y2="973.5"/><line class="cls-5" x1="298" y1="70" x2="982" y2="70"/><path d="M1269.5,11V1014H8.5V11h1261m10-10H-1.5V1024h1281V1Z"/></svg>