<svg id="Layer_1" data-name="Layer 1" xmlns="http://www.w3.org/2000/svg" viewBox="0 0 1280 1024"><defs><style>.cls-1{fill:#ccd4e0;}.cls-2,.cls-3,.cls-4,.cls-5,.cls-6,.cls-7{fill:none;stroke-miterlimit:10;}.cls-2,.cls-3{stroke:#355687;}.cls-2,.cls-5{stroke-width:40px;}.cls-3{stroke-width:10px;}.cls-4,.cls-6,.cls-7{stroke:#000;}.cls-4{stroke-width:6.43px;}.cls-5{stroke:#fff;}.cls-6{stroke-width:2px;}.cls-7{stroke-width:2.98px;}</style></defs><title>layoutExample-thumbs</title><rect y="2" width="1280" height="135"/><rect class="cls-1" x="60" y="346.23" width="164.99" height="226.81"/><rect class="cls-1" x="458.4" y="346.23" width="164.99" height="226.81" rx="0.75" ry="0.75"/><rect class="cls-1" x="259.2" y="346.23" width="164.99" height="226.81" rx="1" ry="1"/><rect class="cls-1" x="657.6" y="346.23" width="164.99" height="226.81"/><rect class="cls-1" x="857" y="346.07" width="364" height="226.81"/><line class="cls-2" x1="60" y1="282" x2="1221" y2="282"/><line class="cls-2" x1="60" y1="206" x2="1221" y2="206"/><line class="cls-3" x1="60" y1="936" x2="1221" y2="936"/><line class="cls-3" x1="60" y1="974" x2="1221" y2="974"/><line class="cls-4" x1="59" y1="654" x2="423" y2="654"/><line class="cls-4" x1="59" y1="675.27" x2="423" y2="675.27"/><line class="cls-4" x1="59" y1="696.55" x2="423" y2="696.55"/><line class="cls-4" x1="59" y1="717.82" x2="423" y2="717.82"/><line class="cls-4" x1="59" y1="739.09" x2="423" y2="739.09"/><line class="cls-4" x1="59" y1="760.36" x2="423" y2="760.36"/><line class="cls-4" x1="59" y1="781.64" x2="423" y2="781.64"/><line class="cls-4" x1="59" y1="802.91" x2="423" y2="802.91"/><line class="cls-4" x1="59" y1="824.18" x2="423" y2="824.18"/><line class="cls-4" x1="59" y1="845.45" x2="423" y2="845.45"/><line class="cls-4" x1="59" y1="866.73" x2="423" y2="866.73"/><line class="cls-4" x1="59" y1="888" x2="423" y2="888"/><line class="cls-4" x1="459" y1="654" x2="823" y2="654"/><line class="cls-4" x1="459" y1="675.27" x2="823" y2="675.27"/><line class="cls-4" x1="459" y1="696.55" x2="823" y2="696.55"/><line class="cls-4" x1="459" y1="717.82" x2="823" y2="717.82"/><line class="cls-4" x1="459" y1="739.09" x2="823" y2="739.09"/><line class="cls-4" x1="459" y1="760.36" x2="823" y2="760.36"/><line class="cls-4" x1="459" y1="781.64" x2="823" y2="781.64"/><line class="cls-4" x1="459" y1="802.91" x2="823" y2="802.91"/><line class="cls-4" x1="459" y1="824.18" x2="823" y2="824.18"/><line class="cls-4" x1="459" y1="845.45" x2="823" y2="845.45"/><line class="cls-4" x1="459" y1="866.73" x2="823" y2="866.73"/><line class="cls-4" x1="459" y1="888" x2="823" y2="888"/><line class="cls-4" x1="856" y1="654" x2="1220" y2="654"/><line class="cls-4" x1="856" y1="675.27" x2="1220" y2="675.27"/><line class="cls-4" x1="856" y1="696.55" x2="1220" y2="696.55"/><line class="cls-4" x1="856" y1="717.82" x2="1220" y2="717.82"/><line class="cls-4" x1="856" y1="739.09" x2="1220" y2="739.09"/><line class="cls-4" x1="856" y1="760.36" x2="1220" y2="760.36"/><line class="cls-4" x1="856" y1="781.64" x2="1220" y2="781.64"/><line class="cls-4" x1="856" y1="802.91" x2="1220" y2="802.91"/><line class="cls-4" x1="856" y1="824.18" x2="1220" y2="824.18"/><line class="cls-4" x1="856" y1="845.45" x2="1220" y2="845.45"/><line class="cls-4" x1="856" y1="866.73" x2="1220" y2="866.73"/><line class="cls-4" x1="856" y1="888" x2="1220" y2="888"/><line class="cls-5" x1="298" y1="70" x2="982" y2="70"/><line class="cls-6" x1="61" y1="589" x2="225" y2="589"/><line class="cls-6" x1="61" y1="600" x2="225" y2="600"/><line class="cls-6" x1="260" y1="589" x2="424" y2="589"/><line class="cls-6" x1="260" y1="600" x2="424" y2="600"/><line class="cls-6" x1="459" y1="589" x2="623" y2="589"/><line class="cls-6" x1="459" y1="600" x2="623" y2="600"/><line class="cls-6" x1="658" y1="589" x2="822" y2="589"/><line class="cls-6" x1="658" y1="600" x2="822" y2="600"/><line class="cls-7" x1="857" y1="589" x2="1221" y2="589"/><line class="cls-7" x1="857" y1="600" x2="1221" y2="600"/><path d="M1271,10.5v1003H10V10.5H1271m10-10H0v1023H1281V.5Z"/></svg>