<svg id="Layer_1" data-name="Layer 1" xmlns="http://www.w3.org/2000/svg" xmlns:xlink="http://www.w3.org/1999/xlink" viewBox="0 0 370 372.8">
  <defs>
    <style>
      .cls-1, .cls-10, .cls-5, .cls-6, .cls-7, .cls-8 {
        fill: none;
      }

      .cls-2 {
        fill: #f1f1f2;
      }

      .cls-3 {
        fill: #355687;
      }

      .cls-4 {
        clip-path: url(#clip-path);
      }

      .cls-5 {
        stroke: #a6a8ab;
      }

      .cls-5, .cls-7 {
        stroke-width: 2px;
      }

      .cls-6 {
        stroke: #355687;
      }

      .cls-10, .cls-6, .cls-8 {
        stroke-width: 5px;
      }

      .cls-7 {
        stroke: #bbbdbf;
      }

      .cls-8 {
        stroke: #3397c5;
      }

      .cls-9 {
        fill: #ccd4e0;
      }

      .cls-10 {
        stroke: #fff;
      }
    </style>
    <clipPath id="clip-path" transform="translate(-20 -20)">
      <rect class="cls-1" x="20" y="20" width="370" height="372.8"/>
    </clipPath>
  </defs>
  <title>slides-vs-scrolling</title>
  <polygon class="cls-2" points="201.91 151.36 201.91 151.36 201.91 260.68 368.16 260.68 368.16 151.36 201.91 151.36"/>
  <polygon class="cls-3" points="201.91 12.07 201.91 12.07 201.91 35.54 368.16 35.54 368.16 12.07 201.91 12.07"/>
  <g class="cls-4">
    <path class="cls-3" d="M225.42,21.4s-5,0-5,5V47.23s0,5,5,5H385s5,0,5-5V26.4s0-5-5-5Z" transform="translate(-20 -20)"/>
    <path class="cls-5" d="M26,21s-5,0-5,5V128.92s0,5,5,5H183.58s5,0,5-5V26s0-5-5-5Z" transform="translate(-20 -20)"/>
    <path class="cls-5" d="M26,149.94s-5,0-5,5V257.86s0,5,5,5H183.58s5,0,5-5V154.94s0-5-5-5Z" transform="translate(-20 -20)"/>
    <path class="cls-5" d="M26,278.88s-5,0-5,5V386.8s0,5,5,5H183.58s5,0,5-5V283.88s0-5-5-5Z" transform="translate(-20 -20)"/>
  </g>
  <line class="cls-6" x1="12.61" y1="13.88" x2="85.49" y2="13.88"/>
  <line class="cls-6" x1="11.91" y1="143.49" x2="84.79" y2="143.49"/>
  <line class="cls-6" x1="12.61" y1="273.1" x2="85.49" y2="273.1"/>
  <line class="cls-7" x1="12.61" y1="31.24" x2="85.49" y2="31.24"/>
  <line class="cls-7" x1="11.91" y1="160.44" x2="79.19" y2="160.44"/>
  <line class="cls-7" x1="12.61" y1="289.65" x2="79.89" y2="289.65"/>
  <line class="cls-7" x1="12.61" y1="38.04" x2="85.49" y2="38.04"/>
  <line class="cls-7" x1="11.91" y1="167.24" x2="79.19" y2="167.24"/>
  <line class="cls-7" x1="12.61" y1="296.45" x2="79.89" y2="296.45"/>
  <line class="cls-7" x1="12.61" y1="51.64" x2="85.49" y2="51.64"/>
  <line class="cls-7" x1="11.91" y1="180.85" x2="79.19" y2="180.85"/>
  <line class="cls-7" x1="12.61" y1="310.05" x2="79.89" y2="310.05"/>
  <line class="cls-7" x1="12.61" y1="65.25" x2="85.49" y2="65.25"/>
  <line class="cls-7" x1="89.7" y1="167.24" x2="156.97" y2="167.24"/>
  <line class="cls-7" x1="12.61" y1="323.66" x2="79.89" y2="323.66"/>
  <line class="cls-7" x1="12.61" y1="78.85" x2="85.49" y2="78.85"/>
  <line class="cls-7" x1="89.7" y1="180.85" x2="156.97" y2="180.85"/>
  <line class="cls-7" x1="12.61" y1="337.26" x2="79.89" y2="337.26"/>
  <line class="cls-7" x1="12.61" y1="44.84" x2="85.49" y2="44.84"/>
  <line class="cls-7" x1="11.91" y1="174.05" x2="79.19" y2="174.05"/>
  <line class="cls-7" x1="12.61" y1="303.25" x2="79.89" y2="303.25"/>
  <line class="cls-7" x1="12.61" y1="58.45" x2="85.49" y2="58.45"/>
  <line class="cls-7" x1="89.7" y1="160.44" x2="156.97" y2="160.44"/>
  <line class="cls-7" x1="12.61" y1="316.86" x2="79.89" y2="316.86"/>
  <line class="cls-7" x1="12.61" y1="72.05" x2="85.49" y2="72.05"/>
  <line class="cls-7" x1="89.7" y1="174.05" x2="156.97" y2="174.05"/>
  <line class="cls-7" x1="12.61" y1="330.46" x2="79.89" y2="330.46"/>
  <line class="cls-7" x1="12.61" y1="85.66" x2="85.49" y2="85.66"/>
  <line class="cls-7" x1="12.61" y1="344.07" x2="79.89" y2="344.07"/>
  <line class="cls-8" x1="12.61" y1="101.22" x2="156.97" y2="101.22"/>
  <line class="cls-8" x1="12.61" y1="230.83" x2="156.97" y2="230.83"/>
  <line class="cls-8" x1="12.61" y1="360.44" x2="156.97" y2="360.44"/>
  <g class="cls-4">
    <path class="cls-9" d="M123.21,30.69a2.94,2.94,0,0,0-3,3v71.08a2.94,2.94,0,0,0,3,3h50.06a2.94,2.94,0,0,0,3-3V33.69a2.94,2.94,0,0,0-3-3Z" transform="translate(-20 -20)"/>
    <path class="cls-9" d="M49.28,213a2.94,2.94,0,0,0-3,3v17.48a2.94,2.94,0,0,0,3,3H76.56a2.94,2.94,0,0,0,3-3V216a2.94,2.94,0,0,0-3-3Z" transform="translate(-20 -20)"/>
    <path class="cls-9" d="M132.67,213a2.94,2.94,0,0,0-3,3v17.48a2.94,2.94,0,0,0,3,3H160a2.94,2.94,0,0,0,3-3V216a2.94,2.94,0,0,0-3-3Z" transform="translate(-20 -20)"/>
    <path class="cls-9" d="M91.15,213a2.94,2.94,0,0,0-3,3v17.48a2.94,2.94,0,0,0,3,3h27.28a2.94,2.94,0,0,0,3-3V216a2.94,2.94,0,0,0-3-3Z" transform="translate(-20 -20)"/>
  </g>
  <line class="cls-7" x1="93.9" y1="289.65" x2="156.97" y2="289.65"/>
  <line class="cls-7" x1="93.9" y1="296.45" x2="156.97" y2="296.45"/>
  <line class="cls-7" x1="93.9" y1="310.05" x2="156.97" y2="310.05"/>
  <line class="cls-7" x1="93.9" y1="323.66" x2="156.97" y2="323.66"/>
  <line class="cls-7" x1="93.9" y1="337.26" x2="156.97" y2="337.26"/>
  <line class="cls-7" x1="93.9" y1="303.25" x2="156.97" y2="303.25"/>
  <line class="cls-7" x1="93.9" y1="316.86" x2="156.97" y2="316.86"/>
  <line class="cls-7" x1="93.9" y1="330.46" x2="156.97" y2="330.46"/>
  <line class="cls-7" x1="93.9" y1="344.07" x2="156.97" y2="344.07"/>
  <g class="cls-4">
    <path class="cls-5" d="M226.42,21s-5,0-5,5V386.23s0,5,5,5H384s5,0,5-5V26s0-5-5-5Z" transform="translate(-20 -20)"/>
  </g>
  <line class="cls-6" x1="212.86" y1="48.88" x2="285.73" y2="48.88"/>
  <line class="cls-6" x1="212.86" y1="164.93" x2="285.73" y2="164.93"/>
  <line class="cls-6" x1="212.86" y1="278.12" x2="285.73" y2="278.12"/>
  <line class="cls-7" x1="212.86" y1="66.13" x2="285.73" y2="66.13"/>
  <line class="cls-7" x1="212.86" y1="179.01" x2="280.13" y2="179.01"/>
  <line class="cls-7" x1="212.86" y1="290.44" x2="280.13" y2="290.44"/>
  <line class="cls-7" x1="212.86" y1="72.93" x2="285.73" y2="72.93"/>
  <line class="cls-7" x1="212.86" y1="185.81" x2="280.13" y2="185.81"/>
  <line class="cls-7" x1="212.86" y1="297.24" x2="280.13" y2="297.24"/>
  <line class="cls-7" x1="212.86" y1="86.54" x2="285.73" y2="86.54"/>
  <line class="cls-7" x1="212.86" y1="199.41" x2="280.13" y2="199.41"/>
  <line class="cls-7" x1="212.86" y1="310.84" x2="280.13" y2="310.84"/>
  <line class="cls-7" x1="212.86" y1="100.14" x2="285.73" y2="100.14"/>
  <line class="cls-7" x1="289.94" y1="185.81" x2="357.21" y2="185.81"/>
  <line class="cls-7" x1="212.86" y1="324.45" x2="280.13" y2="324.45"/>
  <line class="cls-7" x1="212.86" y1="113.75" x2="285.73" y2="113.75"/>
  <line class="cls-7" x1="289.94" y1="199.41" x2="357.21" y2="199.41"/>
  <line class="cls-7" x1="212.86" y1="338.05" x2="280.13" y2="338.05"/>
  <line class="cls-7" x1="212.86" y1="79.73" x2="285.73" y2="79.73"/>
  <line class="cls-7" x1="212.86" y1="192.61" x2="280.13" y2="192.61"/>
  <line class="cls-7" x1="212.86" y1="304.04" x2="280.13" y2="304.04"/>
  <line class="cls-7" x1="212.86" y1="93.34" x2="285.73" y2="93.34"/>
  <line class="cls-7" x1="289.94" y1="179.01" x2="357.21" y2="179.01"/>
  <line class="cls-7" x1="212.86" y1="317.65" x2="280.13" y2="317.65"/>
  <line class="cls-7" x1="212.86" y1="106.94" x2="285.73" y2="106.94"/>
  <line class="cls-7" x1="289.94" y1="192.61" x2="357.21" y2="192.61"/>
  <line class="cls-7" x1="212.86" y1="331.25" x2="280.13" y2="331.25"/>
  <line class="cls-7" x1="212.86" y1="120.55" x2="285.73" y2="120.55"/>
  <line class="cls-7" x1="212.86" y1="344.86" x2="280.13" y2="344.86"/>
  <line class="cls-8" x1="212.86" y1="136.22" x2="357.21" y2="136.22"/>
  <line class="cls-8" x1="212.86" y1="248.05" x2="357.21" y2="248.05"/>
  <line class="cls-8" x1="212.86" y1="359.83" x2="357.21" y2="359.83"/>
  <g class="cls-4">
    <path class="cls-9" d="M324.15,65.51a2.94,2.94,0,0,0-3,3v71.08a2.94,2.94,0,0,0,3,3h50.06a2.94,2.94,0,0,0,3-3V68.51a2.94,2.94,0,0,0-3-3Z" transform="translate(-20 -20)"/>
    <path class="cls-9" d="M250.22,231.54a2.94,2.94,0,0,0-3,3V252a2.94,2.94,0,0,0,3,3h27.29a2.94,2.94,0,0,0,3-3V234.54a2.94,2.94,0,0,0-3-3Z" transform="translate(-20 -20)"/>
    <path class="cls-9" d="M333.61,231.54a2.94,2.94,0,0,0-3,3V252a2.94,2.94,0,0,0,3,3H360.9a2.94,2.94,0,0,0,3-3V234.54a2.94,2.94,0,0,0-3-3Z" transform="translate(-20 -20)"/>
    <path class="cls-9" d="M292.09,231.54a2.94,2.94,0,0,0-3,3V252a2.94,2.94,0,0,0,3,3h27.29a2.94,2.94,0,0,0,3-3V234.54a2.94,2.94,0,0,0-3-3Z" transform="translate(-20 -20)"/>
  </g>
  <line class="cls-7" x1="294.14" y1="290.44" x2="357.21" y2="290.44"/>
  <line class="cls-7" x1="294.14" y1="297.24" x2="357.21" y2="297.24"/>
  <line class="cls-7" x1="294.14" y1="310.84" x2="357.21" y2="310.84"/>
  <line class="cls-7" x1="294.14" y1="324.45" x2="357.21" y2="324.45"/>
  <line class="cls-7" x1="294.14" y1="338.05" x2="357.21" y2="338.05"/>
  <line class="cls-7" x1="294.14" y1="304.04" x2="357.21" y2="304.04"/>
  <line class="cls-7" x1="294.14" y1="317.65" x2="357.21" y2="317.65"/>
  <line class="cls-7" x1="294.14" y1="331.25" x2="357.21" y2="331.25"/>
  <line class="cls-7" x1="294.14" y1="344.86" x2="357.21" y2="344.86"/>
  <line class="cls-10" x1="246.49" y1="17.55" x2="319.37" y2="17.55"/>
</svg>
