<svg xmlns="http://www.w3.org/2000/svg" viewBox="0 0 250.66 250.64"><defs><style>.cls-1{fill:#134f27;}.cls-2{fill:#1b6433;}.cls-3{fill:#fdfefd;}</style></defs><title>Asset 6</title><g id="Layer_2" data-name="Layer 2"><g id="Layer_1-2" data-name="Layer 1"><path class="cls-1" d="M135.7,250.8H125.37v-44c1.09,0,2.17-.11,3.25-.11,14.95,0,29.89,0,44.84,0,2.51,0,3.43-.88,3.3-3.34s-.07-5.07,0-7.6c0-1.51-.25-2.7-2-3-1.24-.19-1.55-1.08-1.54-2.19,0-1.27-.06-2.54,0-3.8.12-1.78-.71-2.47-2.41-2.44-2,0-4,0-6,0-.72,0-1.48.11-1.78-.83-.83-2.65-3.2-3.55-5.4-4.56A39,39,0,0,0,147,176c-1.83-.27-2.09-1-2.1-2.6a12.32,12.32,0,0,0-4.46-9.8,4.16,4.16,0,0,1-1.59-3.69c0-19.11,0-38.22.08-57.33,0-2.45-.84-3.74-3.11-4.28a12.07,12.07,0,0,0-2.88-.69c-1.86,0-2.18-.86-2.16-2.51.08-8.06.1-16.12,0-24.18,0-2.08.44-2.72,2.64-2.71,18,.1,36,0,54.07.07.57,0,1.25-.3,1.86.39-.46.64-.89,1.3-1.37,1.93-7.17,9.56-14.31,19.14-21.55,28.64a4.9,4.9,0,0,0-.74,5.51c1.68,3.69,4.75,6,8.3,7.43,15,6.24,30.09,6.15,45.08-.12a15.48,15.48,0,0,0,6.95-5.49c2.1-3.08,2.05-4.84-.14-7.81C216.7,86.31,207,74.22,198.16,61.54a3.87,3.87,0,0,0-2.95-1.62c-20.8-2.8-41.58-5.67-62.39-8.43-1.62-.22-2.32-.69-2-2.3.52-2.67-.95-3.55-3.27-3.71-.72,0-1.44-.13-2.16-.2q0-22,0-43.94a100.86,100.86,0,0,1,25.53,2.4C180.5,10.12,205,25,223.63,48.92c22.69,29.09,30.92,62.22,24.84,98.53C243.53,177,229.19,201.6,206.4,221.1a122.39,122.39,0,0,1-60.5,28.14C142.5,249.8,139,249.66,135.7,250.8Z" transform="translate(-0.31 -0.21)"/><path class="cls-2" d="M125.37,206.81v44h-9.24c-.39-.74-1.13-.45-1.7-.48a102.1,102.1,0,0,1-13.16-1.83C37.21,235.8-6.58,175.57,1.62,110.94,6.21,74.81,23.52,45.84,53,24.49,74.52,8.94,98.77,1.29,125.37,1.34q0,22,0,43.94c-4.63.5-4.7.49-5.32,4.83-.2,1.39-1.08,1.19-1.92,1.31C98.42,54.1,78.72,56.89,59,59.37c-3.85.49-6.07,2-8.33,5.19-8.36,11.71-17.16,23.1-25.87,34.56-1.34,1.76-1.89,3.39-1,5.47a14.06,14.06,0,0,0,5.62,6.08c5.49,3.46,11.61,5,18,5.61,10.59,1,21,.32,30.69-4.62a15,15,0,0,0,6.79-6,5.4,5.4,0,0,0-.4-6.5C77.63,90.24,71,81.22,64.21,72.25L61.4,68.49a8.82,8.82,0,0,1,1.16-.2c18.47,0,37,0,55.43-.05,1.76,0,2.08.62,2.06,2.2q-.09,12.09,0,24.18c0,1.9-.27,2.78-2.5,3.11-5.23.76-5.51,1.33-5.51,6.63v55.43c0,1.24.17,2.42-1.1,3.39a12.41,12.41,0,0,0-5,10.35c0,1.52-.55,2.05-2,2.23a46.57,46.57,0,0,0-9.75,2.3c-2.55.88-5.51,1.61-6.88,4-1.28,2.26-2.83,2.41-5,2.36-4.82-.11-4.84,0-4.82,4.67,0,1.84.28,3.68-2.35,4-.94.13-1,1.13-1,2,0,3.08,0,6.16,0,9.24,0,1.6.72,2.33,2.3,2.3h2.44Z" transform="translate(-0.31 -0.21)"/><path class="cls-3" d="M125.37,1.34C98.77,1.29,74.52,8.94,53,24.49,23.52,45.84,6.21,74.81,1.62,110.94c-8.2,64.63,35.59,124.86,99.65,137.55a102.1,102.1,0,0,0,13.16,1.83c.57,0,1.31-.26,1.7.48q-56.77,0-113.56,0c-1.79,0-2.26-.26-2.26-2.19Q.42,125.6.31,2.53C.31.48.85.21,2.71.21Q125.65.3,248.57.21c1.86,0,2.4.27,2.4,2.32q-.1,123.07,0,246.13c0,1.93-.47,2.19-2.26,2.19q-56.51-.09-113,0c3.3-1.14,6.8-1,10.2-1.56a122.39,122.39,0,0,0,60.5-28.14c22.79-19.5,37.13-44.1,42.07-73.65,6.08-36.31-2.15-69.44-24.84-98.53C205,25,180.5,10.12,150.9,3.74A100.86,100.86,0,0,0,125.37,1.34Z" transform="translate(-0.31 -0.21)"/><path class="cls-3" d="M125.37,206.81l-46.45-.12H76.48c-1.58,0-2.32-.7-2.3-2.3,0-3.08,0-6.16,0-9.24,0-.86.07-1.86,1-2,2.63-.37,2.36-2.21,2.35-4,0-4.7,0-4.78,4.82-4.67,2.14.05,3.69-.1,5-2.36,1.37-2.41,4.33-3.14,6.88-4a46.57,46.57,0,0,1,9.75-2.3c1.42-.18,2-.71,2-2.23a12.41,12.41,0,0,1,5-10.35c1.27-1,1.1-2.15,1.1-3.39V104.36c0-5.3.28-5.87,5.51-6.63,2.23-.33,2.52-1.21,2.5-3.11q-.12-12.09,0-24.18c0-1.58-.3-2.2-2.06-2.2-18.48.07-37,.05-55.43.05a8.82,8.82,0,0,0-1.16.2l2.81,3.76c6.74,9,13.42,18,20.27,26.87a5.4,5.4,0,0,1,.4,6.5,15,15,0,0,1-6.79,6c-9.71,4.94-20.1,5.65-30.69,4.62-6.34-.62-12.46-2.15-17.95-5.61a14.06,14.06,0,0,1-5.62-6.08c-.94-2.08-.39-3.71,1-5.47,8.71-11.46,17.51-22.85,25.87-34.56,2.26-3.15,4.48-4.7,8.33-5.19,19.74-2.48,39.44-5.27,59.16-7.95.84-.12,1.72.08,1.92-1.31.62-4.34.69-4.33,5.32-4.83.72.07,1.44.15,2.16.2,2.32.16,3.79,1,3.27,3.71-.31,1.61.39,2.08,2,2.3,20.81,2.76,41.59,5.63,62.39,8.43a3.87,3.87,0,0,1,2.95,1.62c8.88,12.68,18.54,24.77,27.7,37.24,2.19,3,2.24,4.73.14,7.81a15.48,15.48,0,0,1-6.95,5.49c-15,6.27-30.07,6.36-45.08.12-3.55-1.48-6.62-3.74-8.3-7.43a4.9,4.9,0,0,1,.74-5.51c7.24-9.5,14.38-19.08,21.55-28.64.48-.63.91-1.29,1.37-1.93-.61-.69-1.29-.39-1.86-.39-18,0-36.05,0-54.07-.07-2.2,0-2.67.63-2.64,2.71.11,8.06.09,16.12,0,24.18,0,1.65.3,2.52,2.16,2.51a12.07,12.07,0,0,1,2.88.69c2.27.54,3.13,1.83,3.11,4.28-.1,19.11,0,38.22-.08,57.33a4.16,4.16,0,0,0,1.59,3.69,12.32,12.32,0,0,1,4.46,9.8c0,1.59.27,2.33,2.1,2.6a39,39,0,0,1,10.66,3c2.2,1,4.57,1.91,5.4,4.56.3.94,1.06.83,1.78.83,2,0,4,0,6,0,1.7,0,2.53.66,2.41,2.44-.08,1.26,0,2.53,0,3.8,0,1.11.3,2,1.54,2.19,1.76.27,2,1.46,2,3-.05,2.53-.12,5.08,0,7.6s-.79,3.35-3.3,3.34c-15-.09-29.89-.05-44.84,0C127.54,206.7,126.46,206.77,125.37,206.81ZM172,101.65h48.78L196.35,69.19C188.21,80,180.2,90.67,172,101.65Zm-92.91,0L54.61,69.2c-8.25,11-16.24,21.61-24.4,32.49Zm50.66-42.24a4.32,4.32,0,0,0-4.24-4.38A4.49,4.49,0,0,0,121,59.34a4.63,4.63,0,0,0,4.32,4.41A4.39,4.39,0,0,0,129.71,59.45Z" transform="translate(-0.31 -0.21)"/><path class="cls-1" d="M172,101.65c8.24-11,16.25-21.63,24.39-32.46l24.39,32.46Z" transform="translate(-0.31 -0.21)"/><path class="cls-2" d="M79.05,101.69H30.21c8.16-10.88,16.15-21.51,24.4-32.49Z" transform="translate(-0.31 -0.21)"/><path class="cls-1" d="M129.71,59.45a4.39,4.39,0,0,1-4.35,4.3A4.63,4.63,0,0,1,121,59.34a4.49,4.49,0,0,1,4.43-4.27A4.32,4.32,0,0,1,129.71,59.45Z" transform="translate(-0.31 -0.21)"/></g></g></svg>